<svg width="25" height="24" viewBox="0 0 25 24" fill="none" xmlns="http://www.w3.org/2000/svg">
<path fill-rule="evenodd" clip-rule="evenodd" d="M2.01966 8.351C2.01966 7.32201 2.86049 6.47424 3.88106 6.47424C3.91663 6.47424 3.95218 6.47641 3.98749 6.48073L11.9399 7.4541L20.0536 6.48048C20.0883 6.47632 20.1231 6.47424 20.158 6.47424C21.1786 6.47424 22.0194 7.322 22.0194 8.351C22.0194 8.36293 22.0194 8.37551 22.0195 8.38871C22.0201 8.63775 22.0213 9.1051 21.8174 9.55558C21.5739 10.0937 21.1104 10.4832 20.438 10.7098L20.4311 10.7121L16.3745 12.042V20.2061C16.3745 21.2195 16.0667 21.9739 15.5113 22.4553C14.9827 22.9134 14.3708 23 13.9977 23C13.5337 23 12.9134 22.8948 12.3823 22.5208C12.2283 22.4124 12.0882 22.2857 11.9656 22.1412C11.8564 22.2771 11.7297 22.3994 11.5856 22.5068C11.0506 22.9056 10.4037 23 9.88361 23C9.53467 23 8.9163 22.927 8.37107 22.4843C7.78877 22.0116 7.45051 21.2508 7.45051 20.2061V12.0346L3.61446 10.7304C2.92104 10.5212 2.45641 10.1156 2.21712 9.56892C2.01788 9.11373 2.01901 8.63787 2.0196 8.38789C2.01963 8.37498 2.01966 8.36267 2.01966 8.351ZM3.81668 8.28609C3.7927 8.31026 3.78606 8.3347 3.78606 8.351C3.78606 8.49178 3.78682 8.59052 3.79647 8.68276C3.80565 8.77052 3.82043 8.8208 3.83315 8.84988C3.84301 8.8724 3.85446 8.88978 3.87934 8.91057C3.90769 8.93428 3.97762 8.98197 4.12903 9.02663C4.14051 9.03002 4.15193 9.03364 4.16327 9.03749L8.61592 10.5514C8.97508 10.6735 9.21691 11.013 9.21691 11.3952V20.2061C9.21691 20.8492 9.40872 21.0402 9.47892 21.0972C9.5862 21.1842 9.74278 21.219 9.88361 21.219C10.2323 21.219 10.4367 21.1484 10.5356 21.0747C10.5853 21.0376 10.7028 20.9392 10.7028 20.5494C10.7028 20.5313 10.7033 20.5132 10.7044 20.4951L10.983 15.8949C11.0114 15.4251 11.3977 15.0587 11.8645 15.0587H11.9909C12.4552 15.0587 12.8402 15.4212 12.872 15.8882L13.1856 20.4883C13.187 20.5086 13.1877 20.529 13.1877 20.5494C13.1877 20.7336 13.224 20.8424 13.2559 20.9051C13.2877 20.9675 13.3318 21.0172 13.3936 21.0606C13.5336 21.1592 13.76 21.219 13.9977 21.219C14.134 21.219 14.2689 21.1835 14.3598 21.1047C14.4239 21.0492 14.6081 20.8519 14.6081 20.2061V11.3952C14.6081 11.0095 14.8544 10.6676 15.2182 10.5483L19.8811 9.01961C20.0419 8.96508 20.1219 8.91138 20.1585 8.88066C20.1911 8.8533 20.2027 8.8334 20.2104 8.81629C20.2403 8.75024 20.253 8.651 20.253 8.351C20.253 8.33469 20.2463 8.31026 20.2224 8.28609C20.2077 8.27129 20.1929 8.26304 20.18 8.25886L12.0433 9.23524C11.9733 9.24365 11.9025 9.24356 11.8325 9.23499L3.85865 8.25901C3.84579 8.26323 3.83119 8.27146 3.81668 8.28609Z" fill="#F47F24"/>
<path fill-rule="evenodd" clip-rule="evenodd" d="M12.0202 4.78457C12.569 4.78457 13.0138 4.33605 13.0138 3.78277C13.0138 3.2295 12.569 2.78098 12.0202 2.78098C11.4715 2.78098 11.0266 3.2295 11.0266 3.78277C11.0266 4.33605 11.4715 4.78457 12.0202 4.78457ZM12.0202 6.56555C13.5445 6.56555 14.7802 5.31966 14.7802 3.78277C14.7802 2.24589 13.5445 1 12.0202 1C10.4959 1 9.26022 2.24589 9.26022 3.78277C9.26022 5.31966 10.4959 6.56555 12.0202 6.56555Z" fill="#F47F24"/>
</svg>
