<svg width="24" height="24" viewBox="0 0 24 24" fill="none" xmlns="http://www.w3.org/2000/svg">
<path d="M24 12.0004C24 5.37299 18.6274 0.000366211 12 0.000366211C5.37262 0.000366211 0 5.37299 0 12.0004C0 17.9899 4.38825 22.9544 10.125 23.8546V15.4691H7.07812V12.0004H10.125V9.35662C10.125 6.34912 11.9166 4.68787 14.6576 4.68787C15.9705 4.68787 17.3438 4.92224 17.3438 4.92224V7.87537H15.8306C14.3399 7.87537 13.875 8.8004 13.875 9.74943V12.0004H17.2031L16.6711 15.4691H13.875V23.8546C19.6117 22.9544 24 17.99 24 12.0004Z" fill="#1877F2"/>
<path d="M16.6711 15.4691L17.2031 12.0004H13.875V9.74943C13.875 8.8003 14.3399 7.87537 15.8306 7.87537H17.3437V4.92224C17.3437 4.92224 15.9705 4.68787 14.6575 4.68787C11.9166 4.68787 10.125 6.34912 10.125 9.35662V12.0004H7.07812V15.4691H10.125V23.8546C10.7453 23.9518 11.3722 24.0005 12 24.0004C12.6278 24.0005 13.2547 23.9518 13.875 23.8546V15.4691H16.6711Z" fill="white"/>
</svg>
