<svg width="25" height="25" viewBox="0 0 25 25" fill="none" xmlns="http://www.w3.org/2000/svg">
<path d="M24.1738 10.0692H23.2082V10.0194H12.4198V14.8143H19.1943C18.206 17.6055 15.5502 19.6091 12.4198 19.6091C8.44783 19.6091 5.22748 16.3888 5.22748 12.4168C5.22748 8.4449 8.44783 5.22455 12.4198 5.22455C14.2532 5.22455 15.9212 5.91621 17.1913 7.046L20.5818 3.65543C18.4409 1.66017 15.5772 0.429688 12.4198 0.429688C5.79987 0.429688 0.432617 5.79694 0.432617 12.4168C0.432617 19.0368 5.79987 24.404 12.4198 24.404C19.0397 24.404 24.4069 19.0368 24.4069 12.4168C24.4069 11.6131 24.3242 10.8285 24.1738 10.0692Z" fill="#FFC107"/>
<path d="M1.75488 6.8511L5.69327 9.7394C6.75893 7.10103 9.33976 5.23822 12.3599 5.23822C14.1934 5.23822 15.8614 5.92988 17.1314 7.05967L20.522 3.6691C18.3811 1.67384 15.5173 0.443359 12.3599 0.443359C7.75566 0.443359 3.76273 3.04277 1.75488 6.8511Z" fill="#FF3D00"/>
<path d="M12.4128 24.4304C15.5091 24.4304 18.3225 23.2455 20.4496 21.3185L16.7396 18.1791C15.4958 19.1255 13.9757 19.6372 12.4128 19.6355C9.29492 19.6355 6.64756 17.6475 5.65023 14.873L1.74121 17.8848C3.72509 21.7669 7.75397 24.4304 12.4128 24.4304Z" fill="#4CAF50"/>
<path d="M24.173 10.0615H23.2074V10.0117H12.4189V14.8066H19.1935C18.7207 16.135 17.8691 17.2958 16.7439 18.1456L16.7457 18.1444L20.4557 21.2838C20.1932 21.5224 24.4061 18.4027 24.4061 12.4092C24.4061 11.6054 24.3234 10.8209 24.173 10.0615Z" fill="#1976D2"/>
</svg>
