<svg width="25" height="24" viewBox="0 0 25 24" fill="none" xmlns="http://www.w3.org/2000/svg">
<path d="M12.9191 1.50163C12.9191 0.949526 12.5162 0.501953 12.0191 0.501953C11.5221 0.501953 11.1191 0.949526 11.1191 1.50163V3.23355C11.1191 3.78566 11.5221 4.23323 12.0191 4.23323C12.5162 4.23323 12.9191 3.78566 12.9191 3.23355V1.50163Z" fill="#F47F24"/>
<path fill-rule="evenodd" clip-rule="evenodd" d="M8.51562 9.28622C8.51562 7.35195 10.0837 5.7839 12.0179 5.7839C13.9522 5.7839 15.5203 7.35194 15.5203 9.28622C15.5203 11.2205 13.9522 12.7885 12.0179 12.7885C10.0837 12.7885 8.51562 11.2205 8.51562 9.28622ZM12.0179 7.5839C11.0778 7.5839 10.3156 8.34606 10.3156 9.28622C10.3156 10.2264 11.0778 10.9885 12.0179 10.9885C12.9581 10.9885 13.7203 10.2264 13.7203 9.28622C13.7203 8.34606 12.9581 7.5839 12.0179 7.5839Z" fill="#F47F24"/>
<path fill-rule="evenodd" clip-rule="evenodd" d="M6.56281 16.3245C7.57711 14.8421 9.33367 13.8242 12.0189 13.8242C14.7042 13.8242 16.4608 14.8421 17.4751 16.3245C18.4196 17.7049 18.5546 19.2517 18.5574 20.0635C18.5618 21.3456 17.5219 22.1925 16.4587 22.1925H7.57922C6.51596 22.1925 5.47608 21.3456 5.48048 20.0635C5.48327 19.2516 5.61832 17.7049 6.56281 16.3245ZM12.0189 15.6242C9.84092 15.6242 8.68088 16.4165 8.04835 17.341C7.4012 18.2868 7.28275 19.4062 7.28047 20.0697C7.28007 20.1863 7.32164 20.2584 7.37221 20.3066C7.43142 20.3632 7.5102 20.3925 7.57922 20.3925H16.4587C16.5277 20.3925 16.6065 20.3632 16.6657 20.3066C16.7162 20.2584 16.7578 20.1863 16.7574 20.0697C16.7551 19.4062 16.6367 18.2868 15.9895 17.341C15.357 16.4165 14.197 15.6242 12.0189 15.6242Z" fill="#F47F24"/>
<path fill-rule="evenodd" clip-rule="evenodd" d="M2.22613 10.7761C2.22613 9.17008 3.52807 7.86813 5.1341 7.86813C6.74013 7.86813 8.04208 9.17008 8.04208 10.7761C8.04208 12.3821 6.74013 13.6841 5.1341 13.6841C3.52807 13.6841 2.22613 12.3821 2.22613 10.7761ZM5.1341 9.66813C4.52218 9.66813 4.02613 10.1642 4.02613 10.7761C4.02613 11.388 4.52218 11.8841 5.1341 11.8841C5.74602 11.8841 6.24208 11.388 6.24208 10.7761C6.24208 10.1642 5.74602 9.66813 5.1341 9.66813Z" fill="#F47F24"/>
<path d="M5.39245 15.9936C5.7119 15.5267 6.09932 15.0391 6.5647 14.5777C6.28129 14.5468 5.984 14.5307 5.6725 14.5307C3.37417 14.5307 1.84965 15.4046 0.966378 16.6955C0.148528 17.8908 0.0336453 19.2254 0.0312626 19.9199C0.0272689 21.084 0.97276 21.8539 1.93925 21.8539H4.67975C4.3275 21.552 4.0899 21.0979 4.09181 20.5402C4.09231 20.3937 4.09629 20.2306 4.10592 20.0539H1.93925C1.91861 20.0539 1.88762 20.0437 1.86405 20.0212C1.85409 20.0117 1.84695 20.0014 1.84198 19.9899C1.83741 19.9793 1.83114 19.9598 1.83125 19.9261C1.83313 19.38 1.93141 18.4727 2.45192 17.7119C2.90379 17.0515 3.70189 16.4599 5.16563 16.3492C5.23657 16.2297 5.31209 16.111 5.39245 15.9936Z" fill="#F47F24"/>
<path d="M19.3584 21.854H22.0937C23.0602 21.854 24.0057 21.0841 24.0017 19.92C23.9993 19.2256 23.8844 17.8909 23.0666 16.6956C22.1833 15.4047 20.6588 14.5308 18.3604 14.5308C18.0507 14.5308 17.7551 14.5467 17.4732 14.5773C17.9388 15.0387 18.3264 15.5265 18.6459 15.9936C18.7264 16.1112 18.802 16.23 18.873 16.3497C20.3331 16.4615 21.1297 17.0525 21.581 17.7121C22.1015 18.4728 22.1998 19.3801 22.2017 19.9262C22.2018 19.9599 22.1955 19.9795 22.191 19.9901C22.186 20.0015 22.1788 20.0119 22.1689 20.0214C22.1453 20.0439 22.1143 20.054 22.0937 20.054H19.9325C19.9421 20.2307 19.9461 20.3938 19.9466 20.5402C19.9485 21.098 19.7108 21.5522 19.3584 21.854Z" fill="#F47F24"/>
<path fill-rule="evenodd" clip-rule="evenodd" d="M18.9061 7.90043C17.2981 7.90043 15.9945 9.20401 15.9945 10.8121C15.9945 12.4201 17.2981 13.7237 18.9061 13.7237C20.5142 13.7237 21.8178 12.4201 21.8178 10.8121C21.8178 9.20401 20.5142 7.90043 18.9061 7.90043ZM17.7945 10.8121C17.7945 10.1981 18.2922 9.70042 18.9061 9.70042C19.5201 9.70042 20.0178 10.1981 20.0178 10.8121C20.0178 11.426 19.5201 11.9237 18.9061 11.9237C18.2922 11.9237 17.7945 11.426 17.7945 10.8121Z" fill="#F47F24"/>
<path d="M17.6044 2.71673C17.9559 3.0682 17.9243 3.6696 17.5339 4.06L16.3093 5.28465C15.9189 5.67505 15.3175 5.70661 14.966 5.35514C14.6145 5.00367 14.6461 4.40226 15.0365 4.01186L16.2611 2.78721C16.6515 2.39681 17.2529 2.36525 17.6044 2.71673Z" fill="#F47F24"/>
<path d="M7.761 2.78721C7.3706 2.39681 6.76919 2.36525 6.41772 2.71673C6.06625 3.0682 6.09781 3.6696 6.48821 4.06L7.71285 5.28465C8.10325 5.67505 8.70466 5.70661 9.05613 5.35514C9.4076 5.00367 9.37605 4.40226 8.98565 4.01186L7.761 2.78721Z" fill="#F47F24"/>
</svg>
