<svg width="134" height="45" viewBox="0 0 134 45" fill="none" xmlns="http://www.w3.org/2000/svg">
<mask id="mask0_1290_113674" style="mask-type:luminance" maskUnits="userSpaceOnUse" x="0" y="0" width="134" height="45">
<path d="M134 0H0V44.25H134V0Z" fill="white"/>
</mask>
<g mask="url(#mask0_1290_113674)">
<path d="M31.1343 29.9771C30.1343 32.3386 28.1172 33.5095 25.6704 33.9249C18.3879 35.1612 9.46598 25.8262 4.36251 20.4421C0.821717 16.7066 12.3327 6.39977 16.4065 8.82667C20.4803 11.2537 21.394 13.1531 27.9586 11.1918C34.5231 9.23055 34.8307 21.2482 31.1343 29.9771Z" fill="#FF8C33"/>
<path fill-rule="evenodd" clip-rule="evenodd" d="M26.7896 10.6306C25.8516 10.9951 25.1124 12.0155 25.395 13.0357C25.4073 13.0743 25.4316 13.108 25.4643 13.1319C25.497 13.1557 25.5364 13.1686 25.5768 13.1686C25.6173 13.1686 25.6567 13.1557 25.6894 13.1319C25.722 13.108 25.7463 13.0743 25.7587 13.0357C26.112 13.8226 26.859 14.4416 27.7735 14.1019C28.8293 13.7085 29.3906 12.2659 28.8973 11.2627C28.5257 10.5126 27.5027 10.3552 26.7896 10.6306ZM27.6021 13.1223C26.9479 13.6048 26.2283 13.0646 25.9641 12.4403C26.1159 12.0364 26.3186 11.6718 26.7229 11.4345C27.1036 11.2102 27.7369 11.0909 28.1031 11.403C28.5729 11.8017 27.9449 12.8705 27.6021 13.1236V13.1223Z" fill="white"/>
<path fill-rule="evenodd" clip-rule="evenodd" d="M23.5356 14.6669C23.7683 14.5663 24.0271 14.5436 24.2737 14.6021C24.4736 14.6611 24.6496 14.7821 24.7766 14.9478C24.9035 15.1134 24.9748 15.3152 24.9801 15.524C24.9866 15.7344 24.9424 15.9433 24.8513 16.133C24.7602 16.3227 24.6249 16.4876 24.4568 16.6138C24.029 16.9377 23.4678 16.9246 22.9823 16.7738C22.9075 16.7548 22.8411 16.7113 22.7938 16.6503C22.7464 16.5892 22.7206 16.5141 22.7207 16.4368C22.7268 16.3902 22.7331 16.3436 22.7393 16.2971C22.7817 15.9783 22.8241 15.6607 22.8515 15.3391C22.8541 15.2999 22.8678 15.2624 22.891 15.2308C22.9141 15.1992 22.9459 15.1749 22.9823 15.1607C23.109 14.9408 23.303 14.7676 23.5356 14.6669ZM23.3879 16.1508C23.6129 16.1824 23.8602 16.1679 24.0054 16.0367C24.0795 15.9832 24.1379 15.9106 24.1743 15.8266C24.2107 15.7426 24.2237 15.6502 24.2122 15.5594C24.2119 15.5535 24.2121 15.5497 24.2123 15.5466C24.2128 15.5352 24.213 15.5316 24.1894 15.4681C24.2189 15.55 24.1038 15.3657 24.1729 15.4401C24.1417 15.4064 24.144 15.3994 24.144 15.3994C24.1418 15.3994 24.1321 15.3974 24.097 15.381C24.1951 15.4309 23.9897 15.381 24.0892 15.381C23.9289 15.3703 23.766 15.4057 23.6022 15.4413C23.5052 15.4624 23.408 15.4835 23.3107 15.4951C23.3317 15.7155 23.3591 15.9332 23.3879 16.1508Z" fill="white"/>
<path fill-rule="evenodd" clip-rule="evenodd" d="M32.9603 10.3037L32.9605 10.3029C33.1612 9.17487 33.3607 8.05341 33.4656 6.90603C33.4983 6.81411 33.5023 6.71444 33.4774 6.62014C33.4726 6.57054 33.4558 6.52286 33.4284 6.48127C33.401 6.43966 33.3639 6.40541 33.3204 6.38146C33.2549 6.32847 33.1752 6.29607 33.0914 6.28835C32.8451 6.26874 32.5909 6.24591 32.3309 6.22256C30.418 6.05077 28.1897 5.85066 26.4806 6.69227C25.1779 7.33321 24.1337 8.29719 23.0918 9.25894C21.8399 10.4145 20.5916 11.5669 18.9029 12.1516C18.808 12.1803 18.7278 12.2446 18.6791 12.3311C18.6303 12.4176 18.6168 12.5196 18.6412 12.6159C18.7402 13.0247 18.8092 13.4402 18.8479 13.8591C17.1393 13.2624 14.2401 13.1588 12.6636 13.9994C11.2904 13.4112 10.2003 14.7245 9.2634 15.8532C9.03273 16.1311 8.81139 16.3978 8.59739 16.6222C6.72519 18.5893 4.94981 20.5223 3.51068 22.8396C3.47927 22.8949 3.4628 22.9575 3.46289 23.0211C3.46298 23.0848 3.47964 23.1473 3.51122 23.2025C3.54279 23.2577 3.5882 23.3037 3.64294 23.336C3.69768 23.3683 3.75987 23.3856 3.82337 23.3864C4.5845 23.3398 5.33093 23.1554 6.02655 22.8422C6.08222 22.8178 6.12829 22.7756 6.15763 22.7223C6.18696 22.6689 6.19791 22.6074 6.18878 22.5471C8.4586 22.0177 10.7806 21.7458 13.111 21.7367C12.9566 21.9753 13.1791 22.3308 13.4381 22.2534C13.6846 22.5796 13.9742 22.8708 14.2989 23.1189C14.0104 23.2003 13.7213 23.2779 13.4331 23.3552C11.489 23.8766 9.58676 24.3868 8.20352 26.004C6.93172 27.4944 6.51968 29.6571 6.12655 31.7205C5.93856 32.7072 5.7549 33.6712 5.4836 34.5281C5.36586 34.9019 5.8761 35.1838 6.13775 34.9084C6.60662 34.4195 7.11271 33.9679 7.65146 33.5577C7.20301 34.6274 6.59997 35.6251 5.8617 36.5189C5.5621 36.8769 5.85254 37.3162 6.28821 37.2558C6.87062 37.1757 7.68208 36.3819 8.34726 35.7312C8.65035 35.4348 8.92306 35.168 9.12988 35.012C9.27895 34.9001 9.42819 34.7882 9.57726 34.6765L9.57878 34.6753C10.845 33.7267 12.1072 32.7811 13.2772 31.7139C15.2579 29.9081 16.667 27.5239 16.3412 24.8946C16.6796 25.1698 17.0377 25.4196 17.4127 25.6421C17.4053 25.756 17.4358 25.8691 17.4994 25.9639C17.5629 26.0586 17.656 26.1295 17.7641 26.1657C17.8721 26.2017 17.989 26.201 18.0966 26.1634C18.2042 26.1258 18.2963 26.0537 18.3586 25.9581C18.403 25.8988 18.4499 25.8441 18.4982 25.788C18.5182 25.7647 18.5384 25.741 18.5588 25.7168C18.4749 26.2029 18.4822 26.7155 18.4894 27.2182C18.4914 27.3583 18.4934 27.4976 18.4934 27.6354C18.4934 27.8892 18.4945 28.1417 18.4955 28.3934C18.5022 29.9226 18.5087 31.4206 18.2684 32.9518C18.2055 33.3453 18.5888 33.6403 18.9225 33.4396C18.899 33.5812 18.8762 33.7227 18.8535 33.8641C18.75 34.509 18.6466 35.1526 18.4685 35.7871C18.3756 36.1136 18.7537 36.4297 19.052 36.2369C20.9569 35.0042 22.8722 33.559 24.3441 31.8214C25.914 29.9658 26.4884 28.6242 26.1378 26.0998C26.1295 26.0627 26.1098 26.0292 26.0815 26.004C26.3628 24.5326 26.3104 22.7596 26.2372 21.3997C26.3115 21.4269 26.392 21.432 26.4691 21.4143C26.5462 21.3966 26.6165 21.3569 26.6716 21.3C27.2326 20.6649 27.8496 20.027 28.4766 19.3787C29.921 17.885 31.4186 16.3365 32.4085 14.642C32.6164 14.2863 32.7621 11.8309 32.7925 11.3191C32.796 11.261 32.7979 11.2279 32.7983 11.2258C32.8511 10.9175 32.9058 10.6104 32.9603 10.3037ZM5.59873 21.9793C5.5558 22.025 5.52513 22.0808 5.50957 22.1416C5.49401 22.2024 5.49408 22.2661 5.50977 22.3269C5.20462 22.4347 4.89138 22.518 4.57303 22.576C5.56865 21.1243 6.6663 19.7682 7.78753 18.4057C7.879 18.2946 7.99216 18.1509 8.1232 17.9845C9.04525 16.8132 10.8505 14.5202 12.1873 14.5948C12.1623 14.6531 12.1409 14.7069 12.1232 14.7514C12.1039 14.7998 12.089 14.8373 12.0788 14.8571C11.5813 15.8579 10.7262 16.7638 9.93795 17.5991C9.83274 17.7105 9.72881 17.8207 9.62704 17.9297C9.00737 18.5946 8.3538 19.2273 7.70017 19.8599C6.98478 20.5523 6.26943 21.2447 5.59873 21.9793ZM13.8136 20.9747C13.7761 20.9382 13.7316 20.9097 13.6828 20.8911C13.634 20.8723 13.5819 20.8638 13.5296 20.866C11.3258 20.9225 9.13132 21.1762 6.97246 21.6239C8.58295 19.9545 10.1582 18.2444 11.6562 16.474C12.759 15.1626 13.3792 14.4859 15.1755 14.3233C16.1231 14.2376 17.0495 14.339 17.9812 14.4409C18.2754 14.4731 18.5702 14.5054 18.8663 14.5319C18.823 15.3016 18.547 15.9272 17.9988 16.6065C17.9573 16.5723 17.9098 16.546 17.8589 16.5291C17.1026 16.2669 16.2745 16.8006 15.7524 17.316C15.2305 17.8313 14.6365 18.6995 14.9779 19.4181C15.0105 19.4803 15.0658 19.5274 15.1324 19.5492V19.5585C14.6875 20.0267 14.2519 20.4961 13.8136 20.9747ZM17.9556 18.7598C18.578 19.541 19.245 20.2855 19.9534 20.9892C20.3063 21.3451 20.6869 21.6723 21.0917 21.9675C20.7707 22.2622 20.4463 22.5541 20.1222 22.8459C19.8981 23.0476 19.674 23.2494 19.4511 23.452C19.6186 22.0661 18.8824 20.6045 18.2249 19.299C18.1327 19.116 18.0421 18.936 17.9556 18.7598ZM20.1013 19.9663C19.3696 19.2256 18.597 18.5268 17.7869 17.8733C17.8344 17.8201 17.8816 17.7669 17.9289 17.7136C18.1017 17.5189 18.274 17.3248 18.4528 17.1363C19.2182 18.6798 20.7345 19.9715 22.0323 21.0652C21.9786 21.1192 21.9227 21.171 21.8669 21.2229C21.8223 21.2645 21.7776 21.306 21.734 21.3485C21.6791 21.3184 21.6255 21.2882 21.5718 21.2528C21.1045 20.9499 20.6959 20.5511 20.2973 20.1622C20.2318 20.0983 20.1665 20.0345 20.1013 19.9715V19.9663ZM17.0804 17.5848C16.742 17.9117 16.4066 18.2453 16.0744 18.5854C16.1542 18.4193 16.2511 18.262 16.3634 18.1159C16.4884 17.959 16.6404 17.8257 16.8122 17.7225C16.8433 17.7236 16.8742 17.7159 16.9012 17.7004C16.9283 17.6849 16.9505 17.6621 16.9653 17.6347C16.993 17.6251 17.0183 17.6133 17.043 17.6018C17.0556 17.5959 17.068 17.5901 17.0804 17.5848ZM12.1795 31.5355C11.1132 32.561 9.93053 33.479 8.76218 34.3773C8.67292 34.4484 8.46355 34.6387 8.20177 34.8765C7.98019 35.0778 7.72112 35.3133 7.46568 35.5393C8.02829 34.5832 8.54634 33.6128 8.90479 32.5453C9.0147 32.22 8.60521 31.8961 8.3187 32.0928C7.711 32.5006 7.12739 32.9432 6.57081 33.4187C6.67609 32.9375 6.76633 32.4537 6.85646 31.9705C7.11688 30.5741 7.37643 29.1825 7.99551 27.874C9.15668 25.4237 11.6094 24.7555 13.9773 24.1105C14.144 24.0651 14.3103 24.0197 14.4756 23.9739L14.3745 24.0999C13.0785 25.7158 11.7777 27.3376 10.7626 29.1514C10.6318 29.373 10.8437 29.6917 11.1053 29.5999C12.3391 29.1723 13.4787 28.1835 14.2453 27.141C14.6038 26.6506 15.2593 25.6985 15.4489 24.8552C15.763 27.6 14.1485 29.6379 12.1795 31.5355ZM14.5658 24.7451C14.4083 25.3191 14.0475 25.8656 13.7223 26.3583L13.6775 26.4263C13.1321 27.2479 12.4418 27.9629 11.6405 28.5363C12.1818 27.3696 13.0227 26.448 13.8752 25.5135C14.1065 25.2601 14.3387 25.0055 14.5658 24.7451ZM15.3613 22.7517C15.2865 22.6814 15.2005 22.5922 15.1056 22.494C14.8465 22.2256 14.5218 21.8893 14.1838 21.6829C14.5633 21.3616 14.9191 21.0154 15.2684 20.6627C15.4352 21.6749 15.7648 22.6533 16.2444 23.5596C15.9474 23.2934 15.653 23.0232 15.3613 22.7517ZM17.9779 24.85C17.5645 24.6034 17.1708 24.3249 16.8004 24.0172C16.8125 23.9865 16.8125 23.9523 16.8004 23.9215C16.3686 22.6807 16.0293 21.4095 15.7852 20.1185C15.9858 19.8999 16.1819 19.6813 16.3779 19.4628L16.4956 19.3316C16.8389 21.1449 17.3084 22.9319 17.9007 24.6795C17.9212 24.737 17.9554 24.7888 18.0001 24.8303C17.9951 24.8382 17.9908 24.8466 17.987 24.8552L17.9779 24.85ZM18.5012 24.3254C18.2938 23.0707 17.8365 21.8773 17.3793 20.6845C17.1676 20.1318 16.9558 19.5793 16.769 19.0208C16.9105 18.8602 17.0516 18.6988 17.1927 18.5372L17.1944 18.5352C17.2902 18.4255 17.386 18.3159 17.4821 18.2064C17.4821 18.2112 17.4873 18.2159 17.493 18.221C17.4967 18.2243 17.5004 18.2277 17.503 18.2313C17.4829 18.2459 17.468 18.2664 17.4603 18.2899C17.4525 18.3135 17.4523 18.3388 17.4598 18.3625C17.5909 18.8273 17.6968 19.3376 17.8057 19.862C18.088 21.2221 18.39 22.6769 19.2012 23.6802C19.1359 23.7407 19.0696 23.8013 19.0028 23.8623C18.8379 24.0129 18.6705 24.1658 18.5104 24.3254H18.5012ZM25.2848 29.2091C25.1383 30.2005 24.3114 30.9649 23.5782 31.6425C23.4269 31.7824 23.2796 31.9185 23.1431 32.0522C21.962 33.2206 20.6613 34.2611 19.2627 35.1563C19.2823 34.5649 19.3097 33.976 19.3857 33.3794C19.3912 33.3321 19.3791 33.2844 19.3515 33.2455C19.3239 33.2067 19.2829 33.1796 19.2365 33.1696C20.0423 32.4477 20.8605 31.7395 21.6788 31.0312C21.8478 30.885 22.0166 30.7389 22.1854 30.5926C22.4811 30.3367 22.843 30.0684 23.2218 29.7876C24.0311 29.1875 24.9177 28.5301 25.4025 27.8138L25.4023 27.8184C25.3827 28.2771 25.363 28.7399 25.2926 29.2091H25.2848ZM24.1518 27.6564C22.5426 29.1606 20.9137 30.6438 19.2194 32.0522C19.2776 31.0597 19.249 30.0622 19.2206 29.0682L19.2194 29.0281C19.2067 28.4016 19.2572 27.7645 19.3077 27.128C19.3706 26.3362 19.4333 25.5455 19.3739 24.7778C19.7035 24.4395 20.049 24.1221 20.4009 23.7996C20.4457 23.8404 20.501 23.8681 20.5605 23.8795C21.123 23.9608 21.5783 23.5805 21.9774 23.2238C22.3885 22.8258 22.7225 22.3549 22.9625 21.835C22.9941 21.7778 23.012 21.714 23.0148 21.6487C23.0175 21.5834 23.0049 21.5184 22.9782 21.4587C23.6585 20.917 24.3454 20.6862 25.5202 21.1138C25.4716 21.6362 25.4626 22.2017 25.4536 22.7804C25.4253 24.5795 25.395 26.5053 24.1597 27.6564H24.1518ZM27.4853 19.1047C26.3854 20.3681 25.6845 20.1676 24.5175 19.8339C24.2575 19.7595 23.9744 19.6785 23.6585 19.6056C23.581 19.5838 23.4989 19.583 23.421 19.6035C23.343 19.6241 23.2719 19.6651 23.215 19.7224C22.9795 20.0253 22.7297 20.3112 22.4732 20.5906C21.5806 19.8937 20.8684 19.0464 20.1544 18.1968C19.733 17.6954 19.3108 17.1932 18.8505 16.7205C19.1383 16.4386 19.4262 16.1685 19.7231 15.9062C19.7664 15.8621 19.7974 15.8074 19.813 15.7476C19.8286 15.6877 19.8283 15.6249 19.8122 15.5652C19.8008 15.5114 19.7895 15.4578 19.7783 15.4046L19.7781 15.4038C19.4937 14.0593 19.2572 12.9408 20.6665 12.2723C21.5175 11.8681 22.2449 11.1579 22.9235 10.4954C23.0221 10.3991 23.1196 10.3039 23.2163 10.2108C23.2954 10.1347 23.3753 10.0576 23.4558 9.9799C24.6005 8.87421 25.8856 7.63311 27.433 7.23126C29.0254 6.81933 30.8851 6.96337 32.5567 7.09285L32.6505 7.10011C32.628 7.29554 32.6054 7.49644 32.5824 7.70181C32.2831 10.3685 31.8994 13.7884 30.3335 15.7475C29.419 16.8924 28.4535 18.0044 27.4931 19.1047H27.4853Z" fill="white"/>
<path d="M133.568 30.7655C89.2803 29.8218 81.4875 31.9942 69.0723 32.9355C106.674 31.9539 58.5867 43.1884 76.447 38.8317C98.7727 33.3859 101.668 33.789 133.568 30.7655Z" fill="#FF8C33"/>
<path d="M46.9045 18.2706H44.0994V22.9367C44.0994 23.2261 44.1066 23.5154 44.1212 23.8048C44.1356 24.0797 44.1863 24.3329 44.2733 24.5644C44.3748 24.7814 44.5198 24.9623 44.7082 25.1069C44.9112 25.2371 45.2011 25.3023 45.578 25.3023C45.81 25.3023 46.0492 25.2806 46.2956 25.2371C46.5421 25.1938 46.7668 25.1142 46.9697 24.9984V26.7781C46.7378 26.9082 46.4333 26.995 46.0564 27.0385C45.694 27.0963 45.4113 27.1253 45.2084 27.1253C44.4546 27.1253 43.8674 27.024 43.447 26.8214C43.0411 26.6044 42.7367 26.3295 42.5337 25.9968C42.3453 25.664 42.2293 25.295 42.1858 24.8899C42.1569 24.4703 42.1423 24.0507 42.1423 23.6312V18.2706H39.8809V16.5778H42.1423V13.6914H44.0994V16.5778H46.9045V18.2706Z" fill="white"/>
<path d="M51.0153 21.7223C51.0153 22.2432 51.095 22.7279 51.2545 23.1764C51.4139 23.6104 51.6386 23.9866 51.9285 24.3049C52.2185 24.6088 52.5737 24.8547 52.9941 25.0428C53.4144 25.2165 53.8856 25.3033 54.4075 25.3033C54.9293 25.3033 55.4005 25.2165 55.8209 25.0428C56.2413 24.8547 56.5964 24.6088 56.8864 24.3049C57.1763 23.9866 57.401 23.6104 57.5605 23.1764C57.72 22.7279 57.7997 22.2432 57.7997 21.7223C57.7997 21.2015 57.72 20.7241 57.5605 20.29C57.401 19.8415 57.1763 19.4653 56.8864 19.1615C56.5964 18.8431 56.2413 18.5972 55.8209 18.4235C55.4005 18.2354 54.9293 18.1414 54.4075 18.1414C53.8856 18.1414 53.4144 18.2354 52.9941 18.4235C52.5737 18.5972 52.2185 18.8431 51.9285 19.1615C51.6386 19.4653 51.4139 19.8415 51.2545 20.29C51.095 20.7241 51.0153 21.2015 51.0153 21.7223ZM48.9277 21.7223C48.9277 20.97 49.0655 20.2683 49.3409 19.6172C49.6308 18.9661 50.0222 18.3946 50.5152 17.9027C51.008 17.4108 51.5879 17.0273 52.2547 16.7524C52.9216 16.4631 53.6392 16.3184 54.4075 16.3184C55.1758 16.3184 55.8933 16.4631 56.5602 16.7524C57.227 17.0273 57.8069 17.4108 58.2998 17.9027C58.7927 18.3946 59.1769 18.9661 59.4523 19.6172C59.7423 20.2683 59.8872 20.97 59.8872 21.7223C59.8872 22.4747 59.7423 23.1836 59.4523 23.8491C59.1769 24.5003 58.7927 25.0717 58.2998 25.5637C57.8069 26.0411 57.227 26.4246 56.5602 26.7139C55.8933 26.9888 55.1758 27.1263 54.4075 27.1263C53.6392 27.1263 52.9216 26.9888 52.2547 26.7139C51.5879 26.4246 51.008 26.0411 50.5152 25.5637C50.0222 25.0717 49.6308 24.5003 49.3409 23.8491C49.0655 23.1836 48.9277 22.4747 48.9277 21.7223Z" fill="white"/>
<path d="M62.3398 16.5788H64.297V18.0546H64.3404C64.7173 17.5048 65.2319 17.078 65.8843 16.7741C66.5511 16.4703 67.2325 16.3184 67.9284 16.3184C68.7257 16.3184 69.4432 16.4559 70.0811 16.7308C70.7334 17.0056 71.2843 17.389 71.7337 17.8809C72.1976 18.3729 72.5527 18.9516 72.7992 19.6172C73.0456 20.2683 73.1689 20.97 73.1689 21.7223C73.1689 22.4891 73.0456 23.2053 72.7992 23.8709C72.5527 24.522 72.1976 25.0935 71.7337 25.5854C71.2843 26.0629 70.7334 26.4391 70.0811 26.7139C69.4432 26.9888 68.7257 27.1263 67.9284 27.1263C67.189 27.1263 66.4931 26.9743 65.8408 26.6705C65.1885 26.3522 64.6883 25.9254 64.3404 25.3901H64.297V32.986H62.3398V16.5788ZM67.6892 18.1414C67.1673 18.1414 66.6961 18.2354 66.2757 18.4235C65.8553 18.5972 65.5002 18.8431 65.2102 19.1615C64.9203 19.4653 64.6956 19.8415 64.5361 20.29C64.3766 20.7241 64.297 21.2015 64.297 21.7223C64.297 22.2432 64.3766 22.7279 64.5361 23.1764C64.6956 23.6104 64.9203 23.9866 65.2102 24.3049C65.5002 24.6088 65.8553 24.8547 66.2757 25.0429C66.6961 25.2165 67.1673 25.3033 67.6892 25.3033C68.211 25.3033 68.6822 25.2165 69.1025 25.0429C69.523 24.8547 69.8781 24.6088 70.1681 24.3049C70.458 23.9866 70.6827 23.6104 70.8421 23.1764C71.0016 22.7279 71.0813 22.2432 71.0813 21.7223C71.0813 21.2015 71.0016 20.7241 70.8421 20.29C70.6827 19.8415 70.458 19.4653 70.1681 19.1615C69.8781 18.8431 69.523 18.5972 69.1025 18.4235C68.6822 18.2354 68.211 18.1414 67.6892 18.1414Z" fill="white"/>
<path d="M75.7848 16.5788H77.7418V26.8659H75.7848V16.5788ZM75.3281 12.8894C75.3281 12.4988 75.4658 12.166 75.7413 11.8911C76.0312 11.6018 76.3719 11.457 76.7633 11.457C77.1547 11.457 77.4881 11.6018 77.7636 11.8911C78.0535 12.166 78.1984 12.4988 78.1984 12.8894C78.1984 13.2801 78.0535 13.6201 77.7636 13.9094C77.4881 14.1844 77.1547 14.3218 76.7633 14.3218C76.3719 14.3218 76.0312 14.1844 75.7413 13.9094C75.4658 13.6201 75.3281 13.2801 75.3281 12.8894Z" fill="white"/>
<path d="M80.1387 25.1073L85.9884 18.271H80.3349V16.5781H88.3805V18.3143L82.4877 25.1724H88.6844V26.8652H80.1387V25.1073Z" fill="white"/>
<path d="M101.251 26.8662H99.2938V25.3904H99.2507C98.8734 25.9401 98.3518 26.3669 97.685 26.6708C97.0325 26.9746 96.3586 27.1266 95.663 27.1266C94.8654 27.1266 94.1404 26.9891 93.4879 26.7142C92.8506 26.4394 92.2995 26.0559 91.8353 25.564C91.3862 25.072 91.0384 24.5006 90.792 23.8494C90.5455 23.1984 90.4219 22.4894 90.4219 21.7226C90.4219 20.9558 90.5455 20.2468 90.792 19.5958C91.0384 18.9302 91.3862 18.3587 91.8353 17.8812C92.2995 17.3893 92.8506 17.0059 93.4879 16.7311C94.1404 16.4561 94.8654 16.3186 95.663 16.3186C96.4016 16.3186 97.0979 16.4779 97.7504 16.7961C98.4029 17.0999 98.903 17.5196 99.2507 18.0549H99.2938V10.459H101.251V26.8662ZM95.9015 25.3036C96.424 25.3036 96.8946 25.2168 97.3149 25.0431C97.736 24.855 98.091 24.6091 98.3805 24.3052C98.6709 23.9869 98.8958 23.6107 99.0545 23.1767C99.214 22.7281 99.2938 22.2435 99.2938 21.7226C99.2938 21.2018 99.214 20.7243 99.0545 20.2903C98.8958 19.8418 98.6709 19.4655 98.3805 19.1618C98.091 18.8434 97.736 18.5974 97.3149 18.4238C96.8946 18.2357 96.424 18.1417 95.9015 18.1417C95.3799 18.1417 94.9085 18.2357 94.4881 18.4238C94.0678 18.5974 93.7129 18.8434 93.4233 19.1618C93.133 19.4655 92.9081 19.8418 92.7485 20.2903C92.589 20.7243 92.51 21.2018 92.51 21.7226C92.51 22.2435 92.589 22.7281 92.7485 23.1767C92.9081 23.6107 93.133 23.9869 93.4233 24.3052C93.7129 24.6091 94.0678 24.855 94.4881 25.0431C94.9085 25.2168 95.3799 25.3036 95.9015 25.3036Z" fill="white"/>
<path d="M104.26 17.8376C104.811 17.3312 105.448 16.955 106.173 16.709C106.899 16.4486 107.624 16.3184 108.348 16.3184C109.102 16.3184 109.747 16.4124 110.284 16.6005C110.834 16.7886 111.284 17.0418 111.632 17.3601C111.979 17.6784 112.233 18.0473 112.392 18.467C112.566 18.8721 112.653 19.2989 112.653 19.7474V24.9994C112.653 25.3611 112.66 25.6939 112.676 25.9978C112.69 26.3016 112.712 26.591 112.74 26.8659H111.001C110.958 26.345 110.936 25.8241 110.936 25.3033H110.892C110.457 25.9688 109.943 26.4391 109.348 26.7139C108.754 26.9888 108.065 27.1263 107.283 27.1263C106.804 27.1263 106.347 27.0611 105.913 26.931C105.478 26.8007 105.093 26.6054 104.76 26.345C104.441 26.0846 104.187 25.7662 103.999 25.3901C103.811 24.9994 103.717 24.5509 103.717 24.0445C103.717 23.379 103.861 22.8219 104.151 22.3734C104.455 21.9249 104.861 21.5632 105.369 21.2883C105.891 20.9989 106.493 20.7964 107.174 20.6806C107.87 20.5504 108.609 20.4853 109.392 20.4853H110.827V20.0512C110.827 19.7908 110.777 19.5303 110.674 19.2699C110.573 19.0095 110.421 18.778 110.218 18.5754C110.016 18.3584 109.761 18.1921 109.457 18.0763C109.153 17.9461 108.79 17.8809 108.37 17.8809C107.993 17.8809 107.659 17.9172 107.37 17.9895C107.094 18.0618 106.84 18.1559 106.608 18.2716C106.377 18.3729 106.166 18.4959 105.978 18.6406C105.79 18.7853 105.608 18.9227 105.434 19.0529L104.26 17.8376ZM109.783 21.9177C109.319 21.9177 108.841 21.9466 108.348 22.0045C107.87 22.0478 107.427 22.1419 107.021 22.2866C106.63 22.4313 106.304 22.6338 106.043 22.8942C105.797 23.1547 105.673 23.4875 105.673 23.8926C105.673 24.4858 105.87 24.9126 106.26 25.173C106.666 25.4335 107.21 25.5637 107.892 25.5637C108.428 25.5637 108.885 25.4769 109.261 25.3033C109.638 25.1152 109.943 24.8765 110.174 24.5871C110.406 24.2977 110.573 23.9794 110.674 23.6322C110.777 23.2704 110.827 22.916 110.827 22.5687V21.9177H109.783Z" fill="white"/>
<path d="M121.014 18.2706H118.209V22.9367C118.209 23.2261 118.216 23.5154 118.231 23.8048C118.246 24.0797 118.296 24.3329 118.383 24.5644C118.485 24.7814 118.629 24.9623 118.818 25.1069C119.021 25.2371 119.311 25.3023 119.688 25.3023C119.92 25.3023 120.159 25.2806 120.405 25.2371C120.652 25.1938 120.877 25.1142 121.079 24.9984V26.7781C120.847 26.9082 120.543 26.995 120.166 27.0385C119.804 27.0963 119.521 27.1253 119.318 27.1253C118.565 27.1253 117.978 27.024 117.557 26.8214C117.151 26.6044 116.847 26.3295 116.643 25.9968C116.455 25.664 116.339 25.295 116.295 24.8899C116.267 24.4703 116.252 24.0507 116.252 23.6312V18.2706H113.99V16.5778H116.252V13.6914H118.209V16.5778H121.014V18.2706Z" fill="white"/>
<path d="M125.128 21.7223C125.128 22.2432 125.208 22.7279 125.368 23.1764C125.527 23.6104 125.752 23.9866 126.042 24.3049C126.331 24.6088 126.687 24.8547 127.107 25.0428C127.528 25.2165 127.999 25.3033 128.521 25.3033C129.042 25.3033 129.514 25.2165 129.934 25.0428C130.354 24.8547 130.709 24.6088 131 24.3049C131.289 23.9866 131.514 23.6104 131.674 23.1764C131.833 22.7279 131.913 22.2432 131.913 21.7223C131.913 21.2015 131.833 20.7241 131.674 20.29C131.514 19.8415 131.289 19.4653 131 19.1615C130.709 18.8431 130.354 18.5972 129.934 18.4235C129.514 18.2354 129.042 18.1414 128.521 18.1414C127.999 18.1414 127.528 18.2354 127.107 18.4235C126.687 18.5972 126.331 18.8431 126.042 19.1615C125.752 19.4653 125.527 19.8415 125.368 20.29C125.208 20.7241 125.128 21.2015 125.128 21.7223ZM123.041 21.7223C123.041 20.97 123.178 20.2683 123.454 19.6172C123.744 18.9661 124.135 18.3946 124.628 17.9027C125.121 17.4108 125.701 17.0273 126.368 16.7524C127.035 16.4631 127.753 16.3184 128.521 16.3184C129.289 16.3184 130.007 16.4631 130.673 16.7524C131.34 17.0273 131.92 17.4108 132.413 17.9027C132.906 18.3946 133.29 18.9661 133.566 19.6172C133.855 20.2683 134 20.97 134 21.7223C134 22.4747 133.855 23.1836 133.566 23.8491C133.29 24.5003 132.906 25.0717 132.413 25.5637C131.92 26.0411 131.34 26.4246 130.673 26.7139C130.007 26.9888 129.289 27.1263 128.521 27.1263C127.753 27.1263 127.035 26.9888 126.368 26.7139C125.701 26.4246 125.121 26.0411 124.628 25.5637C124.135 25.0717 123.744 24.5003 123.454 23.8491C123.178 23.1836 123.041 22.4747 123.041 21.7223Z" fill="white"/>
</g>
</svg>
