<svg width="19" height="20" viewBox="0 0 19 20" fill="none" xmlns="http://www.w3.org/2000/svg">
<path d="M10.3552 8.85202C11.1362 9.63307 12.4026 9.63307 13.1836 8.85202C13.9647 8.07098 13.9647 6.80465 13.1836 6.0236C12.4026 5.24255 11.1362 5.24255 10.3552 6.0236C9.57413 6.80465 9.57413 8.07098 10.3552 8.85202Z" fill="#F47F24"/>
<path fill-rule="evenodd" clip-rule="evenodd" d="M18.7166 1.26941C18.6693 0.795849 18.2947 0.421274 17.8211 0.373883C14.0261 -0.00590056 10.764 1.13113 8.48505 2.92551C7.94178 3.35328 7.44808 3.82446 7.01487 4.32684C5.83653 3.61697 4.45424 3.41443 3.16652 3.96629C1.4679 4.69424 0.326192 6.56586 0.0255008 9.30655C-0.00549565 9.58907 0.0851895 9.87143 0.274892 10.0831C0.464594 10.2947 0.735389 10.4156 1.0196 10.4156C3.24832 10.4155 4.41891 10.0405 5.12227 9.86225L9.19882 13.9571C8.85596 15.3021 8.64927 16.6539 8.64917 18.0452C8.64915 18.3351 8.77493 18.6107 8.99392 18.8007C9.21291 18.9906 9.50356 19.0762 9.79054 19.0352C12.469 18.6527 14.2716 17.4587 14.9878 15.7876C15.5187 14.5488 15.3748 13.2238 14.7435 12.0941C15.2536 11.6564 15.7318 11.1565 16.1654 10.6056C17.9593 8.32635 19.0961 5.06403 18.7166 1.26941ZM11.2499 13.9162C11.8724 13.7805 12.4889 13.5483 13.0842 13.2332C13.3694 13.8373 13.3796 14.4629 13.1495 14.9998C12.8721 15.647 12.1529 16.3745 10.697 16.8026C10.7431 16.2413 10.8694 15.7031 10.9956 15.1652C11.0925 14.7522 11.1894 14.3393 11.2499 13.9162ZM10.0161 12.0482C11.5531 12.0306 13.1427 11.0737 14.5938 9.36861C15.942 7.65564 16.88 5.21443 16.7827 2.30774L16.7766 2.30754L16.7764 2.30144C13.8695 2.20397 11.4286 3.14209 9.71601 4.49056C7.94917 5.88175 7.04727 7.62244 7.03111 9.06324L10.0161 12.0482ZM5.87548 5.97481C5.55706 6.57022 5.32155 7.18708 5.18247 7.81023C4.73553 7.86908 4.30014 7.97109 3.86439 8.07318C3.32209 8.20023 2.77926 8.32741 2.21295 8.37169C2.59579 6.81765 3.31853 6.07706 3.95433 5.80459C4.50535 5.56845 5.19075 5.59794 5.87548 5.97481Z" fill="#F47F24"/>
<path d="M5.31449 12.6964C5.31449 13.2487 4.86677 13.6964 4.31448 13.6964C3.96896 13.6964 3.21349 13.7356 2.96712 14.0367C2.60556 14.4786 2.68884 15.3503 2.74999 15.9902C2.76291 16.1255 2.77484 16.2504 2.78138 16.3587C2.88737 16.3666 3.00913 16.3798 3.14068 16.394C3.75803 16.4608 4.59099 16.551 5.02165 16.232C5.33874 15.9149 5.491 15.3694 5.44198 14.9283C5.38099 14.3793 5.77652 13.8849 6.32543 13.8239C6.87434 13.7629 7.36876 14.1585 7.42975 14.7074C7.48401 15.1958 7.4026 15.778 7.25111 16.2757C7.11762 16.7143 6.8603 17.3206 6.37825 17.7016C6.02737 18.025 5.59629 18.1873 5.22184 18.2758C3.72836 18.6288 1.62695 18.3529 1.20708 17.933C0.787212 17.5131 0.548637 15.454 0.883477 13.9526C0.967707 13.5749 1.11599 13.1516 1.40011 12.7939C1.7596 12.3125 2.34423 12.0564 2.90769 11.9005C3.40489 11.763 3.93646 11.6964 4.31449 11.6964C4.86677 11.6964 5.31449 12.1441 5.31449 12.6964Z" fill="#F47F24"/>
</svg>
